name Walk9.mot
datacolumns 19
datarows 25
range 1.47500000 1.59500000
endheader

                time	   L_ground_force_vx	   L_ground_force_vy	   L_ground_force_vz	   L_ground_force_px	   L_ground_force_py	   L_ground_force_pz	   R_ground_force_vx	   R_ground_force_vy	   R_ground_force_vz	   R_ground_force_px	   R_ground_force_py	   R_ground_force_pz	   L_ground_torque_x	   L_ground_torque_y	   L_ground_torque_z	   R_ground_torque_x	   R_ground_torque_y	   R_ground_torque_z	
          1.47500000	         37.95020255	        539.93762445	         28.49209480	         -0.27803807	          0.00000000	         -0.05845950	         -0.05329372	          0.62777765	          0.04501129	          0.00033172	          0.00000000	          0.00008091	          0.00000000	         -0.75596329	          0.00000000	          0.00000000	          0.00523707	          0.00000000	
          1.48000000	         41.83516124	        551.51157827	         29.25422120	         -0.27759413	          0.00000000	         -0.05829507	         -0.07272709	          0.55443998	          0.03292707	          0.00025401	          0.00000000	          0.00005934	          0.00000000	         -0.76582937	          0.00000000	          0.00000000	          0.00996856	          0.00000000	
          1.48500000	         45.86218899	        562.57475952	         29.97826618	         -0.27712960	          0.00000000	         -0.05812139	         -0.09406180	          0.37170068	          0.01002234	          0.00010151	          0.00000000	          0.00001838	          0.00000000	         -0.76902246	          0.00000000	          0.00000000	          0.01611735	          0.00000000	
          1.49000000	         50.02425132	        573.00752816	         30.63877214	         -0.27663978	          0.00000000	         -0.05793205	         -0.11573025	          0.04089959	         -0.02693086	         -0.00014883	          0.00000000	         -0.00004775	          0.00000000	         -0.76563765	          0.00000000	          0.00000000	          0.02371791	          0.00000000	
          1.49500000	         54.30842415	        582.69661656	         31.21097212	         -0.27612032	          0.00000000	         -0.05772088	         -0.13524680	         -0.47998898	         -0.08123360	         -0.00052084	          0.00000000	         -0.00014499	          0.00000000	         -0.75578990	          0.00000000	          0.00000000	          0.03264500	          0.00000000	
          1.50000000	         58.69366750	        591.53946898	         31.67010223	         -0.27556572	          0.00000000	         -0.05748216	         -0.14900078	         -1.23305593	         -0.15589381	         -0.00103671	          0.00000000	         -0.00027874	          0.00000000	         -0.73952698	          0.00000000	          0.00000000	          0.04253967	          0.00000000	
          1.50500000	         63.15203058	        599.44196457	         31.99097421	         -0.27496979	          0.00000000	         -0.05721039	         -0.15207249	         -2.25530282	         -0.25309135	         -0.00171330	          0.00000000	         -0.00045293	          0.00000000	         -0.71716187	          0.00000000	          0.00000000	          0.05272289	          0.00000000	
          1.51000000	         67.65100398	        606.31305213	         32.14732122	         -0.27432634	          0.00000000	         -0.05690056	         -0.13810764	         -3.57123173	         -0.37344594	         -0.00255705	          0.00000000	         -0.00066869	          0.00000000	         -0.68894204	          0.00000000	          0.00000000	          0.06210018	          0.00000000	
          1.51500000	         72.15725490	        612.06038496	         32.11364153	         -0.27362909	          0.00000000	         -0.05654792	         -0.09929858	         -5.18283142	         -0.51506807	         -0.00355743	          0.00000000	         -0.00092268	          0.00000000	         -0.65530192	          0.00000000	          0.00000000	          0.06906423	          0.00000000	
          1.52000000	         76.63974291	        616.58611377	         31.86732840	         -0.27287272	          0.00000000	         -0.05614877	         -0.02653422	         -7.05673861	         -0.67238840	         -0.00467867	          0.00000000	         -0.00120496	          0.00000000	         -0.61683467	          0.00000000	          0.00000000	          0.07140628	          0.00000000	
          1.52500000	         81.07220386	        619.78449492	         31.38998067	         -0.27205401	          0.00000000	         -0.05570001	          0.09020546	         -9.10857745	         -0.83478616	         -0.00585010	          0.00000000	         -0.00149654	          0.00000000	         -0.57448617	          0.00000000	          0.00000000	          0.06625202	          0.00000000	
          1.53000000	         85.43125873	        621.54311813	         30.66805614	         -0.27117208	          0.00000000	         -0.05519959	          0.26112209	        -11.18482994	         -0.98507335	         -0.00695532	          0.00000000	         -0.00176665	          0.00000000	         -0.52924222	          0.00000000	          0.00000000	          0.05004384	          0.00000000	
          1.53500000	         89.69553469	        621.74721141	         29.69458302	         -0.27022913	          0.00000000	         -0.05464545	          0.49544231	        -13.04309233	         -1.09794095	         -0.00782100	          0.00000000	         -0.00196997	          0.00000000	         -0.48268463	          0.00000000	          0.00000000	          0.01859733	          0.00000000	
          1.54000000	         93.84290689	        620.28527503	         28.46954430	         -0.26923027	          0.00000000	         -0.05403741	          0.79973458	        -14.33224947	         -1.13853743	         -0.00820636	          0.00000000	         -0.00204408	          0.00000000	         -0.43629923	          0.00000000	          0.00000000	         -0.03273330	          0.00000000	
          1.54500000	         97.84892200	        617.04935955	         27.00036293	         -0.26818320	          0.00000000	         -0.05337814	          1.17561203	        -14.57496614	         -1.06142914	         -0.00779521	          0.00000000	         -0.00190756	          0.00000000	         -0.39143177	          0.00000000	          0.00000000	         -0.10874031	          0.00000000	
          1.55000000	        101.68418540	        611.93619958	         25.30160406	         -0.26709892	          0.00000000	         -0.05267252	          1.61676172	        -13.15595099	         -0.81028401	         -0.00619270	          0.00000000	         -0.00145940	          0.00000000	         -0.34915385	          0.00000000	          0.00000000	         -0.21385337	          0.00000000	
          1.55500000	        105.31244911	        604.84590160	         23.39401185	         -0.26599121	          0.00000000	         -0.05192661	          2.10528948	         -9.32066939	         -0.31872262	         -0.00293006	          0.00000000	         -0.00058058	          0.00000000	         -0.31057236	          0.00000000	          0.00000000	         -0.35139041	          0.00000000	
          1.56000000	        108.68633777	        595.67517309	         21.30208703	         -0.26487481	          0.00000000	         -0.05114748	          2.60744845	         -2.19050882	          0.48711569	          0.00251901	          0.00000000	          0.00086145	          0.00000000	         -0.27622555	          0.00000000	          0.00000000	         -0.52252657	          0.00000000	
          1.56500000	        111.74387907	        584.31021464	         19.05176166	         -0.26376405	          0.00000000	         -0.05034383	          3.06893335	          9.19827016	          1.68364856	          0.01070550	          0.00000000	          0.00300387	          0.00000000	         -0.24616770	          0.00000000	          0.00000000	         -0.72495064	          0.00000000	
          1.57000000	        114.40490161	        570.62768724	         16.66813575	         -0.26267221	          0.00000000	         -0.04952625	          3.41007788	         25.82329603	          3.34185649	          0.02215107	          0.00000000	          0.00597427	          0.00000000	         -0.22011983	          0.00000000	          0.00000000	         -0.95119985	          0.00000000	
          1.57500000	        116.56886766	        554.50647808	         14.17548463	         -0.26161025	          0.00000000	         -0.04870485	          3.52149338	         48.56328652	          5.51548754	          0.03726720	          0.00000000	          0.00986944	          0.00000000	         -0.19807466	          0.00000000	          0.00000000	         -1.18669862	          0.00000000	
          1.58000000	        118.11410791	        535.84446281	         11.59718929	         -0.26058430	          0.00000000	         -0.04788766	          3.26093343	         78.03434940	          8.22478922	          0.05624291	          0.00000000	          0.01472632	          0.00000000	         -0.17980499	          0.00000000	          0.00000000	         -1.40757737	          0.00000000	
          1.58500000	        118.90139626	        514.57316117	          8.95801960	         -0.25959202	          0.00000000	         -0.04707880	          2.45245687	        114.36710041	         11.43527181	          0.07889690	          0.00000000	          0.02048387	          0.00000000	         -0.16486388	          0.00000000	          0.00000000	         -1.57841739	          0.00000000	
          1.59000000	        118.77968232	        490.67596575	          6.28647238	         -0.25861971	          0.00000000	         -0.04628010	          0.88927813	        156.91898021	         15.03134311	          0.10449288	          0.00000000	          0.02693583	          0.00000000	         -0.15200120	          0.00000000	          0.00000000	         -1.65015868	          0.00000000	
          1.59500000	        117.59752155	        464.21059595	          3.61845850	         -0.25763855	          0.00000000	         -0.04549276	         -1.65780292	        203.92218657	         18.78534453	          0.13152866	          0.00000000	          0.03367736	          0.00000000	         -0.13937777	          0.00000000	          0.00000000	         -1.55856489	          0.00000000	
